<?xml version="1.0" encoding="utf-8"?>
<!-- Generator: Adobe Illustrator 23.0.4, SVG Export Plug-In . SVG Version: 6.00 Build 0)  -->
<svg version="1.1" id="Layer_1" xmlns="http://www.w3.org/2000/svg" xmlns:xlink="http://www.w3.org/1999/xlink" x="0px" y="0px"
	 viewBox="0 0 576 216" style="enable-background:new 0 0 576 216;" xml:space="preserve">
<style type="text/css">
	.st0{fill:#FFFFFF;}
</style>
<g>
	<path class="st0" d="M24.8,19.04V197.2h518.83V19.04H24.8z M535.95,26.71v162.82H373.48V26.71H535.95z M365.45,26.71v162.82H202.98
		V26.71H365.45z M195.31,26.71v162.82H32.47V26.71H195.31z"/>
	<path class="st0" d="M97.85,89.94c1.91-2.48,4.57-4.58,7.97-6.25c3.4-1.68,6.6-2.52,9.59-2.52c6.48,0,11.15,1.71,14,5.12
		c2.86,3.42,4.29,8.84,4.29,16.26v50.3h20.39V99.33c0-11.12-3.02-19.81-9.02-26.01c-6.01-6.23-14.22-9.34-24.59-9.34
		c-10.82,0-19.01,3.21-24.55,9.63l-3.76-8.15H77.48v87.4h20.38V89.94z"/>
	<path class="st0" d="M266.48,150.74c5.28,2.55,11.12,3.84,17.55,3.84c13.33,0,23.84-3.86,31.55-11.58
		c7.7-7.71,11.54-18.74,11.54-33.02c0-30.66-13.92-46-41.78-46c-7.46,0-13.74,2.46-18.85,7.34v-5.87H246.1v111.28h20.39V150.74z
		 M266.48,87.11c3.79-3.78,8.13-5.7,13.01-5.7c9.37,0,16.1,2.11,20.17,6.32c4.06,4.2,6.09,11.45,6.09,21.77
		c0,9.65-2.05,16.72-6.13,21.19c-4.1,4.47-10.84,6.71-20.21,6.71c-4.94,0-9.25-1.49-12.93-4.48V87.11z"/>
	<path class="st0" d="M448.76,103.28c0-6.18,1.82-11.4,5.47-15.69c3.66-4.28,7.84-6.43,12.53-6.43c4.34,0,8.31,1.15,11.94,3.44
		l8.6-17.44c-3.68-2.12-8.99-3.18-15.9-3.18c-9.42,0-16.96,3.27-22.64,9.83v-8.35h-20.39v87.4h20.39V103.28z"/>
</g>
</svg>
